<svg viewBox="0 0 1320 480" xmlns="http://www.w3.org/2000/svg" font-family="'Inter','SF Pro Display',-apple-system,'Segoe UI','PingFang SC','Noto Sans CJK SC',sans-serif">
  <defs>
    <marker id="b4" markerWidth="9" markerHeight="9" refX="6.5" refY="3.2" orient="auto"><path d="M0,0 L6.5,3.2 L0,6.4 z" fill="#6b655c"/></marker>
    <marker id="b4a" markerWidth="9" markerHeight="9" refX="6.5" refY="3.2" orient="auto"><path d="M0,0 L6.5,3.2 L0,6.4 z" fill="#e7bd61"/></marker>
    <style>
      .hd{font-size:12px;font-weight:600;letter-spacing:.8px}
      .lane{fill:#1a1814;stroke:#3a352e;stroke-width:1}
      .card{fill:#22201b;stroke:#3a352e;stroke-width:1}
      .cl{fill:#eee8df;font-size:13px;font-weight:600}
      .tg{fill:#9b948a;font-size:10.5px}
      .gl{stroke-width:1.6;fill:none;stroke-linecap:round;stroke-linejoin:round}
      .nl{fill:#e7bd61;font-size:10.5px;font-weight:500}
    </style>
  </defs>

  <rect x="0" y="0" width="1320" height="480" rx="18" fill="#171512"/>

  <!-- column flow arrows -->
  <path class="gl" d="M334,128 H354" stroke="#6b655c" marker-end="url(#b4)"/>
  <path class="gl" d="M650,128 H670" stroke="#6b655c" marker-end="url(#b4)"/>
  <path class="gl" d="M966,128 H986" stroke="#6b655c" marker-end="url(#b4)"/>

  <!-- Queued -->
  <circle cx="50" cy="49" r="4" fill="#9b948a"/>
  <text class="hd" x="62" y="53" fill="#b8b0a4">QUEUED</text>
  <rect class="lane" x="40" y="66" width="292" height="206" rx="13"/>
  <rect class="card" x="58" y="90" width="256" height="74" rx="10"/>
  <circle cx="80" cy="118" r="4" fill="#9b948a"/>
  <text class="cl" x="94" y="122">queued task</text>
  <rect x="58" y="138" width="256" height="0"/>
  <rect x="74" y="138" width="58" height="18" rx="6" fill="#28241f"/><text class="tg" x="86" y="151">Claude</text>

  <!-- In progress -->
  <circle cx="356" cy="49" r="4" fill="#65d6a1"/>
  <text class="hd" x="368" y="53" fill="#b8b0a4">IN PROGRESS</text>
  <rect class="lane" x="356" y="66" width="292" height="206" rx="13"/>
  <rect class="card" x="374" y="90" width="256" height="74" rx="10"/>
  <circle cx="396" cy="118" r="4" fill="#65d6a1"/>
  <text class="cl" x="410" y="122">running task</text>
  <rect x="390" y="138" width="68" height="18" rx="6" fill="#28241f"/><text class="tg" x="402" y="151">OpenCode</text>

  <!-- Review -->
  <circle cx="672" cy="49" r="4" fill="#49c0c9"/>
  <text class="hd" x="684" y="53" fill="#b8b0a4">REVIEW</text>
  <rect class="lane" x="672" y="66" width="292" height="206" rx="13"/>
  <rect class="card" x="690" y="90" width="256" height="74" rx="10"/>
  <circle cx="712" cy="118" r="4" fill="#49c0c9"/>
  <text class="cl" x="726" y="122">in review</text>
  <rect x="706" y="138" width="58" height="18" rx="6" fill="#28241f"/><text class="tg" x="718" y="151">Codex</text>

  <!-- Done -->
  <circle cx="988" cy="49" r="4" fill="#f27d53"/>
  <text class="hd" x="1000" y="53" fill="#b8b0a4">DONE</text>
  <rect class="lane" x="988" y="66" width="292" height="206" rx="13"/>
  <rect class="card" x="1006" y="90" width="256" height="74" rx="10"/>
  <g class="gl" stroke="#f27d53"><path d="M1024,118 l3,3 l6,-7"/></g>
  <text class="cl" x="1044" y="122">shipped</text>
  <text class="tg" x="1022" y="151">merged · deployed</text>

  <!-- overlay arrows -->
  <path class="gl" d="M502,164 V312" stroke="#e7bd61" stroke-dasharray="4 5" opacity=".85" marker-end="url(#b4a)"/>
  <text class="nl" x="512" y="246">open ask /</text>
  <text class="nl" x="512" y="262">failing check</text>
  <path class="gl" d="M820,164 V312" stroke="#e7bd61" stroke-dasharray="4 5" opacity=".85" marker-end="url(#b4a)"/>
  <text class="nl" x="830" y="254">failing check</text>

  <!-- Needs you lane -->
  <rect x="356" y="316" width="608" height="120" rx="13" fill="#211b12" stroke="#725927" stroke-width="1.2"/>
  <g class="gl" stroke="#e7bd61" transform="translate(386,348)"><path d="M0,-9 L9,7 H-9 Z"/><path d="M0,-2 v5"/><circle cx="0" cy="6" r="0.6" fill="#e7bd61"/></g>
  <text x="408" y="346" fill="#f1cf82" font-size="15" font-weight="600">Needs you</text>
  <text x="408" y="366" fill="#c5a56a" font-size="11">the exception lane atlas owns — aggregated, always on top</text>
  <rect class="card" x="376" y="380" width="300" height="40" rx="9" fill="#282015" stroke="#6b5224"/>
  <circle cx="398" cy="400" r="4" fill="#e7bd61"/>
  <text class="cl" x="412" y="404" fill="#f3e5c7" font-size="12.5">permission ask · failing check</text>
  <text x="700" y="404" fill="#c5a56a" font-size="11">Approve · Answer · Open · Review</text>
</svg>
